HIERARCHY
ROOT Hips
{
	OFFSET	0.00	0.00	0.00
	CHANNELS 6 Xposition Yposition Zposition Zrotation Xrotation Yrotation
	JOINT Spine
	{
		OFFSET	 0.00	0.01	 0.00
		CHANNELS 3 Zrotation Xrotation Yrotation
		JOINT Spine1
		{
			OFFSET	 0.00	 2.45913012437421	 0.00
			CHANNELS 3 Zrotation Xrotation Yrotation
            JOINT Neck
            {
                OFFSET	 0.00	 2.48462964506057	 0.00
                CHANNELS 3 Zrotation Xrotation Yrotation
                JOINT Head
                {
                    OFFSET	 0.00	 0.927524780924562	 0.00
                    CHANNELS 3 Zrotation Xrotation Yrotation
                    End Site 
                    {
                        OFFSET	 0.00	 1.14999962169752	 0.00
                    }
                }
            }
			JOINT LeftShoulder
			{
				OFFSET	 0.00	 2.48462964506057	 0.00
				CHANNELS 3 Zrotation Xrotation Yrotation
				JOINT LeftUpArm
				{
					OFFSET	 0.00	 1.24881979654096	 0.00
					CHANNELS 3 Zrotation Xrotation Yrotation
					JOINT LeftForeArm
					{
						OFFSET	 0.00	2.59758046908119	 0.00
						CHANNELS 3 Zrotation Xrotation Yrotation
						JOINT LeftHand
						{
							OFFSET	 0.00	2.45542024364365	 0.00
							CHANNELS 3 Zrotation Xrotation Yrotation
							JOINT LeftHandThumb 
							{
								OFFSET	 0.00	0.00	 0.00
								CHANNELS 3 Zrotation Xrotation Yrotation
								End Site
								{
									OFFSET	 0.00	0.00	1.00000003353624
								}
							}
							JOINT L_Wrist_End 
							{
								OFFSET	 0.00	0.99999967115358	 0.00
								CHANNELS 3 Zrotation Xrotation Yrotation
								End Site 
								{
									OFFSET	 0.00	 0.00	 0.00
								}
							}
						}
					}
				}
			}
			JOINT RightShoulder
			{
				OFFSET	 0.00	 2.48462964506057	 0.00
				CHANNELS 3 Zrotation Xrotation Yrotation
				JOINT RightUpArm
				{
					OFFSET	 0.00	 1.24881979654096	 0.00
					CHANNELS 3 Zrotation Xrotation Yrotation
					JOINT RightForeArm
					{
						OFFSET	 0.00	2.59758046908119	 0.00
						CHANNELS 3 Zrotation Xrotation Yrotation
						JOINT RightHand
						{
							OFFSET	 0.00	2.45542024364365	 0.00
							CHANNELS 3 Zrotation Xrotation Yrotation
							JOINT RightHandThumb 
							{
								OFFSET	 0.00	0.00	 0.00
								CHANNELS 3 Zrotation Xrotation Yrotation
								End Site
								{
									OFFSET	 0.00	0.00	1.00000003353624
								}
							}
							JOINT R_Wrist_End 
							{
								OFFSET	 0.00	0.99999967115358	 0.00
								CHANNELS 3 Zrotation Xrotation Yrotation
								End Site 
								{
									OFFSET	 0.00	 0.00	 0.00
								}
							}
						}
					}
				}
			}
		}
	}
	JOINT LeftUpLeg
	{
		OFFSET	 1.2719394002717	 0.00	 0.00
		CHANNELS 3 Zrotation Xrotation Yrotation
		JOINT LeftLowLeg
		{
			OFFSET	 0.00	-4.3429100912261	 0.00
			CHANNELS 3 Zrotation Xrotation Yrotation
			JOINT LeftFoot
			{
				OFFSET	 0.00	-4.48767017425826	 0.00
				CHANNELS 3 Zrotation Xrotation Yrotation
				JOINT LeftToeBase
                {
                    OFFSET	 0.00	0.00	 1.51507020887566
                    CHANNELS 3 Zrotation Xrotation Yrotation
                    End Site 
                    {
                        OFFSET	 0.00	0.00	 0.75000010571191
                    }
                }
			}
		}
	}
	JOINT RightUpLeg
	{
		OFFSET	 -1.2719393604653	 0.00	 0.00
		CHANNELS 3 Zrotation Xrotation Yrotation
		JOINT RightLowLeg
		{
			OFFSET	 0.00	-4.3429100912261	 0.00
			CHANNELS 3 Zrotation Xrotation Yrotation
			JOINT RightFoot
			{
				OFFSET	 0.00	-4.48767017425826	 0.00
				CHANNELS 3 Zrotation Xrotation Yrotation
				JOINT RightToeBase
                {
                    OFFSET	 0.00	0.00	 1.51507020887566
                    CHANNELS 3 Zrotation Xrotation Yrotation
                    End Site 
                    {
                        OFFSET	 0.00	0.00	 0.749999965609858
                    }
                }   
			}
		}
	}
}
MOTION 
Frames:	16 
Frame Time: 0.02 
 -2.055749969482422 -0.9922100067138672 9.3431201171875 -167.43 72.3388 888.871 5.12702 -27.111 -0.345833 -2.49171 7.92833 -0.0605833 16.3558 35.5859 -1.75104 -37.0477 -74.723 -24.1355 -120.1063 0.522253 9.71169 -42.6065 4.59327 27.7967 0.0 18.0275 0.0 1.69684 -12.1559 17.1806 0.0 0.0 0.0 0.0 0.0 0.0 118.3762 -4.55355 -1.07229 49.6341 -1.73346 -382.688 0.0 16.8027 0.0 7.22899 -9.47568 -1.80776 0.0 0.0 0.0 0.0 0.0 0.0 0.155003 -13.2638 -24.804 0.0 5.50507 0.0 1.0334 -3.8099995 21.2441 0.0 -11.2568 0.0 9.35434 -11.2518 391.094 0.0 3.9029 0.0 2.78539 1.8751001 -30.6285 0.0 -18.424881 0.0 
  -2.058840026855469 -0.9916020202636718 9.342969970703125 -167.471 72.348 888.892 5.18163 -27.1595 -0.343248 -2.4991 7.938 -0.125926 16.1988 35.8205 -1.67119 -37.2131 -74.4934 -24.0292 -120.1328 0.532098 9.72921 -42.5957 4.64745 27.7607 0.0 17.9749 0.0 2.00646 -12.164 17.583 0.0 0.0 0.0 0.0 0.0 0.0 118.434296 -4.58064 -1.17443 49.5515 -1.73263 -382.243 0.0 16.6437 0.0 7.27611 -9.40633 -1.4714 0.0 0.0 0.0 0.0 0.0 0.0 0.164476 -13.26 -24.7752 0.0 5.50376 0.0 0.698791 -3.9992008 21.1056 0.0 -10.891541 0.0 9.36653 -11.2565 391.07 0.0 3.91587 0.0 2.76655 1.8855 -30.591 0.0 -18.43368 0.0 
  -2.0623599243164064 -0.9912660217285156 9.34281982421875 -167.529 72.372 888.896 5.25461 -27.2254 -0.338028 -2.50106 7.98043 -0.206947 15.8395 36.1381 -1.36966 -37.51 -74.2399 -24.1673 -120.173904 0.548102 9.75458 -42.5605 4.69219 27.7199 0.0 17.9472 0.0 2.21546 -12.0939 18.1164 0.0 0.0 0.0 0.0 0.0 0.0 118.4509 -4.6277 -1.20222 49.5172 -1.78396 -381.885 0.0 16.5625 0.0 7.01473 -9.47663 -1.36387 0.0 0.0 0.0 0.0 0.0 0.0 0.179732 -13.2307 -24.7227 0.0 5.50011 0.0 1.03831 -3.8117008 21.2461 0.0 -11.2794895 0.0 9.38492 -11.2528 391.108 0.0 3.94803 0.0 2.76392 1.8758001 -30.5701 0.0 -18.416729 0.0 
  -2.0664300537109375 -0.9911360168457031 9.342650146484376 -167.56 72.4104 888.875 5.30412 -27.3176 -0.362309 -2.47344 8.11014 -0.279848 15.5015 36.369 -1.11744 -37.617 -73.939 -23.9496 -120.2061 0.565036 9.7487 -42.514 4.76996 27.9551 0.0 17.9418 0.0 2.6356 -12.1672 18.5768 0.0 0.0 0.0 0.0 0.0 0.0 118.480896 -4.72113 -1.15047 49.4667 -1.84211 -381.374 0.0 16.4681 0.0 6.96487 -9.49223 -0.980599 0.0 0.0 0.0 0.0 0.0 0.0 0.201254 -13.1876 -24.6913 0.0 5.49975 0.0 0.981356 -3.8523998 21.2438 0.0 -11.254641 0.0 9.41215 -11.2318 391.126 0.0 3.97942 0.0 2.73931 1.8869 -30.5492 0.0 -18.42246 0.0 
  -2.070820007324219 -0.9912539672851562 9.342689819335938 -167.641 72.4647 888.875 5.33621 -27.4259 -0.415614 -2.41541 8.29544 -0.35647 15.0092 36.6434 -0.686005 -37.8564 -73.654 -23.9575 -120.230896 0.576528 9.79905 -42.5096 4.91446 27.916 0.0 17.9647 0.0 2.84423 -12.4653 18.8651 0.0 0.0 0.0 0.0 0.0 0.0 118.439896 -4.75033 -1.0491 49.4821 -1.94041 -380.984 0.0 16.3004 0.0 6.78026 -9.38883 -0.788425 0.0 0.0 0.0 0.0 0.0 0.0 0.212256 -13.1229 -24.6709 0.0 5.49439 0.0 0.983858 -3.844801 21.3094 0.0 -11.27153 0.0 9.4291 -11.196 391.209 0.0 4.01072 0.0 2.70396 1.9075003 -30.5684 0.0 -18.43696 0.0 
  -2.0750300598144533 -0.9909600067138672 9.342659912109376 -167.732 72.5161 888.884 5.41497 -27.4813 -0.415749 -2.42423 8.36443 -0.45447 14.5556 36.9884 -0.277851 -37.974 -73.3217 -23.6859 -120.2409 0.575282 9.79807 -42.4894 4.99443 27.9239 0.0 17.9614 0.0 2.94125 -12.6384 19.091 0.0 0.0 0.0 0.0 0.0 0.0 118.4394 -4.79162 -1.09108 49.4896 -2.0327 -380.394 0.0 16.1755 0.0 6.75962 -9.4637 -0.485648 0.0 0.0 0.0 0.0 0.0 0.0 0.214931 -13.079 -24.6031 0.0 5.52211 0.0 0.977223 -3.8659 21.3191 0.0 -11.26785 0.0 9.44365 -11.1701 391.271 0.0 4.05007 0.0 2.68709 1.9092999 -30.5564 0.0 -18.44474 0.0 
  -2.079040069580078 -0.9906739807128906 9.342689819335938 -167.787 72.5899 888.863 5.53642 -27.5149 -0.378207 -2.47518 8.4362 -0.57111 14.1072 37.3518 0.103768 -38.2315 -72.9985 -23.5733 -120.2413 0.587506 9.81371 -42.465 5.08955 27.8814 0.0 17.9348 0.0 3.09918 -12.773 19.551 0.0 0.0 0.0 0.0 0.0 0.0 118.4357 -4.82156 -1.06698 49.5173 -2.195 -379.941 0.0 16.0235 0.0 6.59749 -9.48991 0.0575911 0.0 0.0 0.0 0.0 0.0 0.0 0.222571 -13.0072 -24.5947 0.0 5.54165 0.0 0.931665 -3.8969002 21.3655 0.0 -11.27819 0.0 9.4569 -11.1146 391.336 0.0 4.07605 0.0 2.69201 1.9084997 -30.543 0.0 -18.43697 0.0 
  -2.083560028076172 -0.9903910064697266 9.342750244140625 -167.879 72.6654 888.868 5.64709 -27.5898 -0.347991 -2.5188 8.57006 -0.67016 13.5852 37.6903 0.563381 -38.3347 -72.6216 -23.2283 -120.2572 0.659906 9.89569 -42.3924 5.18913 27.7948 0.0 17.9168 0.0 3.09105 -12.688 19.6589 0.0 0.0 0.0 0.0 0.0 0.0 118.4534 -4.88698 -1.06348 49.529 -2.2523 -379.447 0.0 15.7638 0.0 6.52097 -9.47648 0.223349 0.0 0.0 0.0 0.0 0.0 0.0 0.225805 -12.9349 -24.5857 0.0 5.56209 0.0 0.892336 -3.9214993 21.413 0.0 -11.26367 0.0 9.46228 -11.0597 391.432 0.0 4.10361 0.0 2.69728 1.9061003 -30.5385 0.0 -18.442791 0.0 
  -2.088520050048828 -0.9898709869384765 9.342650146484376 -167.948 72.7215 888.89 5.74763 -27.6528 -0.357465 -2.54372 8.64862 -0.812635 12.9573 38.101 1.14985 -38.5665 -72.2495 -22.993 -120.2778 0.672563 9.88151 -42.3064 5.23626 27.8694 0.0 17.9417 0.0 3.12545 -12.665 19.768 0.0 0.0 0.0 0.0 0.0 0.0 118.4547 -4.90963 -1.02905 49.5465 -2.42853 -378.895 0.0 15.5532 0.0 6.37604 -9.47331 0.222797 0.0 0.0 0.0 0.0 0.0 0.0 0.232741 -12.8911 -24.6688 0.0 5.58916 0.0 0.817518 -3.9561005 21.4848 0.0 -11.27858 0.0 9.46982 -11.0191 391.534 0.0 4.11971 0.0 2.71323 1.8942003 -30.5657 0.0 -18.44427 0.0 
  -2.0935099792480467 -0.9879869842529296 9.342529907226563 -168.041 72.7602 888.942 5.83536 -27.6882 -0.392649 -2.55015 8.64201 -0.980956 12.2932 38.5563 1.75764 -38.8393 -71.841 -22.7467 -120.3135 0.675084 9.94066 -42.2222 5.31281 27.7645 0.0 17.9422 0.0 3.09674 -12.5799 19.6911 0.0 0.0 0.0 0.0 0.0 0.0 118.451996 -4.91995 -0.991295 49.5637 -2.59096 -378.435 0.0 15.1858 0.0 6.12669 -9.33531 0.357987 0.0 0.0 0.0 0.0 0.0 0.0 0.233478 -12.8775 -24.7892 0.0 5.61767 0.0 0.447889 -4.1555004 21.4661 0.0 -10.94231 0.0 9.47238 -11.0019 391.627 0.0 4.12829 0.0 2.74851 1.8719997 -30.5867 0.0 -18.43485 0.0 
  -2.099720001220703 -0.9903630065917969 9.3427099609375 -167.989 72.7677 888.927 5.92891 -27.8548 -0.434367 -2.53801 8.72383 -1.13507 11.6361 39.0365 2.33777 -39.1481 -71.413 -22.5397 -120.3295 0.718483 10.0163 -42.1475 5.39234 27.758 0.0 17.9728 0.0 3.15641 -12.6819 19.6326 0.0 0.0 0.0 0.0 0.0 0.0 118.4649 -5.02217 -0.987827 49.5601 -2.73142 -377.841 0.0 14.8555 0.0 5.93396 -9.31914 0.531723 0.0 0.0 0.0 0.0 0.0 0.0 0.277479 -12.8669 -24.9535 0.0 5.64779 0.0 0.663322 -4.0352 21.6556 0.0 -11.28969 0.0 9.49746 -10.9407 391.538 0.0 4.04588 0.0 2.67968 1.9520998 -30.5665 0.0 -18.44745 0.0 
  -2.1059800720214845 -0.9882230377197265 9.342249755859376 -168.27 72.7585 889.063 6.03217 -27.9367 -0.371467 -2.54903 8.71877 -1.18378 10.8736 39.4765 3.02809 -39.4017 -70.9597 -22.2863 -120.3363 0.782833 10.0294 -42.0958 5.43849 27.7191 0.0 17.9392 0.0 3.27097 -12.5203 19.5659 0.0 0.0 0.0 0.0 0.0 0.0 118.499 -5.12489 -0.922279 49.5419 -2.89325 -377.208 0.0 14.4294 0.0 5.62637 -9.2268 0.800068 0.0 0.0 0.0 0.0 0.0 0.0 0.266243 -12.8756 -24.9861 0.0 5.64016 0.0 0.620895 -4.046301 21.7977 0.0 -11.30773 0.0 9.48182 -10.9831 391.647 0.0 4.05563 0.0 2.70358 1.9299002 -30.4993 0.0 -18.44988 0.0 
  -2.112779998779297 -0.985198974609375 9.341719970703124 -168.388 72.7469 889.185 6.12038 -27.9358 -0.397304 -2.55747 8.56166 -1.35976 10.0533 40.0075 3.7911 -39.8405 -70.5332 -22.1377 -120.3394 0.75485 10.0596 -42.021 5.4682 27.7137 0.0 17.978 0.0 3.43688 -12.4787 19.6283 0.0 0.0 0.0 0.0 0.0 0.0 118.5403 -5.21143 -0.933702 49.5427 -3.02722 -376.415 0.0 13.8024 0.0 5.11437 -8.89738 1.16378 0.0 0.0 0.0 0.0 0.0 0.0 0.261248 -12.9452 -25.055 0.0 5.71042 0.0 0.537606 -4.0970993 21.8148 0.0 -11.29623 0.0 9.48306 -11.0141 391.613 0.0 4.03884 0.0 2.70015 1.9214001 -30.4509 0.0 -18.43714 0.0 
  -2.1206900024414064 -0.9851010131835938 9.3414697265625 -168.468 72.7471 889.245 6.16247 -28.0295 -0.468086 -2.45762 8.56171 -1.48317 9.10071 40.438 4.65323 -40.3549 -70.0806 -22.074 -120.3643 0.765582 10.0855 -41.9755 5.49802 27.5802 0.0 18.0034 0.0 3.58505 -12.2262 19.5594 0.0 0.0 0.0 0.0 0.0 0.0 118.5443 -5.25662 -0.92902 49.5322 -3.16225 -375.524 0.0 13.1236 0.0 4.42398 -8.59297 1.33543 0.0 0.0 0.0 0.0 0.0 0.0 0.290368 -12.9453 -25.1316 0.0 5.71483 0.0 0.486055 -4.1240997 21.8874 0.0 -11.31665 0.0 9.50242 -11.0069 391.627 0.0 4.00969 0.0 2.67375 1.9491997 -30.4335 0.0 -18.44317 0.0 
  -2.128970031738281 -0.984833984375 9.34114990234375 -168.615 72.7628 889.341 6.22726 -28.1407 -0.485876 -2.40324 8.64117 -1.56514 8.12257 40.7738 5.50637 -40.8903 -69.6108 -21.977 -120.3663 0.814294 10.0746 -41.9131 5.48712 27.3759 0.0 18.1502 0.0 3.73694 -12.2454 19.3988 0.0 0.0 0.0 0.0 0.0 0.0 118.5558 -5.32033 -0.845373 49.5589 -3.29827 -374.116 0.0 12.3094 0.0 3.79854 -8.2741 1.10731 0.0 0.0 0.0 0.0 0.0 0.0 0.303747 -12.9386 -25.1226 0.0 5.73059 0.0 0.423975 -4.1597004 21.9088 0.0 -11.29649 0.0 9.51491 -11.0001 391.71 0.0 4.00993 0.0 2.67466 1.9398003 -30.4403 0.0 -18.4201 0.0 
  -2.1372300720214845 -0.9839959716796876 9.34094970703125 -168.779 72.7752 889.468 6.30937 -28.1656 -0.499285 -2.35166 8.58799 -1.6911 7.04739 41.1175 6.42492 -41.8089 -69.1738 -22.0458 -120.3572 0.822173 10.0912 -41.8754 5.45276 27.0316 0.0 18.2682 0.0 3.82982 -12.0997 19.2585 0.0 0.0 0.0 0.0 0.0 0.0 118.6401 -5.45731 -0.889163 49.4671 -3.29262 -372.328 0.0 11.4641 0.0 3.1961 -8.10466 0.814296 0.0 0.0 0.0 0.0 0.0 0.0 0.302647 -12.9539 -25.1704 0.0 5.77126 0.0 0.0788095 -4.361601 21.8491 0.0 -10.958839 0.0 9.51543 -11.002 391.7 0.0 4.00821 0.0 2.6802 1.9316998 -30.3621 0.0 -18.4363 0.0 
